# xmcd
#
# Track frame offsets:
#	150
#	12332
#	27572
#	44180
#	62425
#	75315
#	90227
#	103180
#	117961
#	131147
#
# Disc length: 1909 seconds
#
# Revision: 0
# Processed by: cddbd v1.5.2PL0 Copyright (c) Steve Scherf et al.
# Submitted via: EasyCDDAExtractor 10.2.0.1
#
DISCID=7e07730a
DTITLE=Edson Mineiro e Goiano - Fazendo a unha da morena
DYEAR=2007
DGENRE=Sertanejo
TTITLE0=Chora peão
TTITLE1=Êta empregada boa
TTITLE2=Vem morena, vem
TTITLE3=Apaixonado por ela
TTITLE4=Fazendo a unha da morena
TTITLE5=Tristeza não me domina
TTITLE6=De Vitória À Nicolândia
TTITLE7=Passaram a mão na noiva
TTITLE8=Chifre em alta
TTITLE9=O locutor fazendo a festa
EXTD=
EXTT0=
EXTT1=
EXTT2=
EXTT3=
EXTT4=
EXTT5=
EXTT6=
EXTT7=
EXTT8=
EXTT9=
PLAYORDER=
